<?xml version="1.0" encoding="utf-8"?>
<!-- Generator: Adobe Illustrator 19.1.0, SVG Export Plug-In . SVG Version: 6.00 Build 0)  -->
<svg version="1.1" xmlns="http://www.w3.org/2000/svg" xmlns:xlink="http://www.w3.org/1999/xlink" x="0px" y="0px"
	 viewBox="0 0 410 230" style="enable-background:new 0 0 410 230;" xml:space="preserve">
<style type="text/css">
	.st0{fill:#333333;}
	.st1{fill:#00CC66;stroke:#000000;stroke-miterlimit:10;}
</style>
<g id="Layer_2">
	<rect x="0" y="0" class="st0" width="410" height="230"/>
</g>
<g id="Layer_4">
	<g>
		<rect x="25.3" y="82.6" class="st1" width="6.8" height="7"/>
		<rect x="32.1" y="89.6" class="st1" width="6.8" height="7"/>
		<rect x="32.1" y="96.6" class="st1" width="6.8" height="7"/>
		<rect x="39" y="96.6" class="st1" width="6.8" height="7"/>
		<rect x="39" y="103.6" class="st1" width="6.8" height="7"/>
		<rect x="45.8" y="96.6" class="st1" width="6.8" height="7"/>
		<rect x="45.8" y="103.6" class="st1" width="6.8" height="7"/>
		<rect x="45.8" y="110.6" class="st1" width="6.8" height="7"/>
		<rect x="52.6" y="103.6" class="st1" width="6.8" height="7"/>
		<rect x="52.6" y="96.6" class="st1" width="6.8" height="7"/>
		<rect x="59.5" y="96.6" class="st1" width="6.8" height="7"/>
		<rect x="66.3" y="96.6" class="st1" width="6.8" height="7"/>
		<rect x="66.3" y="103.6" class="st1" width="6.8" height="7"/>
		<rect x="66.3" y="110.6" class="st1" width="6.8" height="7"/>
		<rect x="59.5" y="110.6" class="st1" width="6.8" height="7"/>
		<rect x="52.6" y="110.6" class="st1" width="6.8" height="7"/>
		<rect x="66.3" y="117.6" class="st1" width="6.8" height="7"/>
		<rect x="66.3" y="124.6" class="st1" width="6.8" height="7"/>
		<rect x="59.5" y="130.4" class="st1" width="6.8" height="7"/>
		<rect x="52.6" y="130.4" class="st1" width="6.8" height="7"/>
		<rect x="73.2" y="103.6" class="st1" width="6.8" height="7"/>
		<rect x="73.2" y="110.6" class="st1" width="6.8" height="7"/>
		<rect x="80" y="89.6" class="st1" width="6.8" height="7"/>
		<rect x="80" y="96.6" class="st1" width="6.8" height="7"/>
		<rect x="80" y="103.6" class="st1" width="6.8" height="7"/>
		<rect x="59.5" y="89.6" class="st1" width="6.8" height="7"/>
		<rect x="66.3" y="82.3" class="st1" width="6.8" height="7"/>
		<rect x="25.3" y="96.6" class="st1" width="6.8" height="7"/>
		<rect x="25.3" y="103.6" class="st1" width="6.8" height="7"/>
		<rect x="18.4" y="103.6" class="st1" width="6.8" height="7"/>
		<rect x="18.4" y="110.6" class="st1" width="6.8" height="7"/>
		<rect x="25.3" y="110.6" class="st1" width="6.8" height="7"/>
		<rect x="25.3" y="117.6" class="st1" width="6.8" height="7"/>
		<rect x="25.3" y="124.6" class="st1" width="6.8" height="7"/>
		<rect x="32.1" y="117.6" class="st1" width="6.8" height="7"/>
		<rect x="32.1" y="130.4" class="st1" width="6.8" height="7"/>
		<rect x="39" y="130.4" class="st1" width="6.8" height="7"/>
		<rect x="39" y="117.6" class="st1" width="6.8" height="7"/>
		<rect x="45.8" y="117.6" class="st1" width="6.8" height="7"/>
		<rect x="52.6" y="117.6" class="st1" width="6.8" height="7"/>
		<rect x="59.5" y="117.6" class="st1" width="6.8" height="7"/>
		<rect x="32.1" y="110.6" class="st1" width="6.8" height="7"/>
		<rect x="39" y="110.6" class="st1" width="6.8" height="7"/>
		<rect x="11.6" y="110.6" class="st1" width="6.8" height="7"/>
		<rect x="11.6" y="117.6" class="st1" width="6.8" height="7"/>
		<rect x="11.6" y="124.6" class="st1" width="6.8" height="7"/>
	</g>
	<g>
		<rect x="123.2" y="82.6" class="st1" width="6.8" height="7"/>
		<rect x="130.1" y="89.6" class="st1" width="6.8" height="7"/>
		<rect x="130.1" y="96.6" class="st1" width="6.8" height="7"/>
		<rect x="136.9" y="96.6" class="st1" width="6.8" height="7"/>
		<rect x="136.9" y="103.6" class="st1" width="6.8" height="7"/>
		<rect x="143.8" y="96.6" class="st1" width="6.8" height="7"/>
		<rect x="143.8" y="103.6" class="st1" width="6.8" height="7"/>
		<rect x="143.8" y="110.6" class="st1" width="6.8" height="7"/>
		<rect x="150.6" y="103.6" class="st1" width="6.8" height="7"/>
		<rect x="150.6" y="96.6" class="st1" width="6.8" height="7"/>
		<rect x="157.4" y="96.6" class="st1" width="6.8" height="7"/>
		<rect x="164.3" y="96.6" class="st1" width="6.8" height="7"/>
		<rect x="164.3" y="103.6" class="st1" width="6.8" height="7"/>
		<rect x="164.3" y="110.6" class="st1" width="6.8" height="7"/>
		<rect x="157.4" y="110.6" class="st1" width="6.8" height="7"/>
		<rect x="150.6" y="110.6" class="st1" width="6.8" height="7"/>
		<rect x="164.3" y="117.6" class="st1" width="6.8" height="7"/>
		<rect x="164.3" y="124.6" class="st1" width="6.8" height="7"/>
		<rect x="157.4" y="130.4" class="st1" width="6.8" height="7"/>
		<rect x="150.6" y="130.4" class="st1" width="6.8" height="7"/>
		<rect x="171.1" y="103.6" class="st1" width="6.8" height="7"/>
		<rect x="171.1" y="110.6" class="st1" width="6.8" height="7"/>
		<rect x="177.9" y="110.6" class="st1" width="6.8" height="7"/>
		<rect x="177.9" y="117.6" class="st1" width="6.8" height="7"/>
		<rect x="177.9" y="124.6" class="st1" width="6.8" height="7"/>
		<rect x="157.4" y="89.6" class="st1" width="6.8" height="7"/>
		<rect x="164.3" y="82.3" class="st1" width="6.8" height="7"/>
		<rect x="123.2" y="96.6" class="st1" width="6.8" height="7"/>
		<rect x="123.2" y="103.6" class="st1" width="6.8" height="7"/>
		<rect x="116.4" y="103.6" class="st1" width="6.8" height="7"/>
		<rect x="116.4" y="110.6" class="st1" width="6.8" height="7"/>
		<rect x="123.2" y="110.6" class="st1" width="6.8" height="7"/>
		<rect x="123.2" y="117.6" class="st1" width="6.8" height="7"/>
		<rect x="123.2" y="124.6" class="st1" width="6.8" height="7"/>
		<rect x="130.1" y="117.6" class="st1" width="6.8" height="7"/>
		<rect x="130.1" y="130.4" class="st1" width="6.8" height="7"/>
		<rect x="136.9" y="130.4" class="st1" width="6.8" height="7"/>
		<rect x="136.9" y="117.6" class="st1" width="6.8" height="7"/>
		<rect x="143.8" y="117.6" class="st1" width="6.8" height="7"/>
		<rect x="150.6" y="117.6" class="st1" width="6.8" height="7"/>
		<rect x="157.4" y="117.6" class="st1" width="6.8" height="7"/>
		<rect x="130.1" y="110.6" class="st1" width="6.8" height="7"/>
		<rect x="136.9" y="110.6" class="st1" width="6.8" height="7"/>
		<rect x="109.5" y="102.9" class="st1" width="6.8" height="7"/>
		<rect x="109.5" y="88.9" class="st1" width="6.8" height="7"/>
		<rect x="109.5" y="95.9" class="st1" width="6.8" height="7"/>
	</g>
	<g>
		<rect x="235.5" y="83.3" class="st1" width="6.8" height="7"/>
		<rect x="242.4" y="90.3" class="st1" width="6.8" height="7"/>
		<rect x="242.4" y="97.3" class="st1" width="6.8" height="7"/>
		<rect x="249.2" y="97.3" class="st1" width="6.8" height="7"/>
		<rect x="249.2" y="104.3" class="st1" width="6.8" height="7"/>
		<rect x="256" y="97.3" class="st1" width="6.8" height="7"/>
		<rect x="256" y="104.3" class="st1" width="6.8" height="7"/>
		<rect x="256" y="111.3" class="st1" width="6.8" height="7"/>
		<rect x="262.9" y="104.3" class="st1" width="6.8" height="7"/>
		<rect x="262.9" y="97.3" class="st1" width="6.8" height="7"/>
		<rect x="269.7" y="97.3" class="st1" width="6.8" height="7"/>
		<rect x="276.6" y="97.3" class="st1" width="6.8" height="7"/>
		<rect x="276.6" y="104.3" class="st1" width="6.8" height="7"/>
		<rect x="276.6" y="111.3" class="st1" width="6.8" height="7"/>
		<rect x="269.7" y="111.3" class="st1" width="6.8" height="7"/>
		<rect x="262.9" y="111.3" class="st1" width="6.8" height="7"/>
		<rect x="276.6" y="118.3" class="st1" width="6.8" height="7"/>
		<rect x="276.6" y="125.3" class="st1" width="6.8" height="7"/>
		<rect x="269.7" y="131.1" class="st1" width="6.8" height="7"/>
		<rect x="262.9" y="131.1" class="st1" width="6.8" height="7"/>
		<rect x="283.4" y="104.3" class="st1" width="6.8" height="7"/>
		<rect x="283.4" y="111.3" class="st1" width="6.8" height="7"/>
		<rect x="290.2" y="90.3" class="st1" width="6.8" height="7"/>
		<rect x="290.2" y="97.3" class="st1" width="6.8" height="7"/>
		<rect x="290.2" y="104.3" class="st1" width="6.8" height="7"/>
		<rect x="269.7" y="90.3" class="st1" width="6.8" height="7"/>
		<rect x="276.6" y="83" class="st1" width="6.8" height="7"/>
		<rect x="235.5" y="97.3" class="st1" width="6.8" height="7"/>
		<rect x="235.5" y="104.3" class="st1" width="6.8" height="7"/>
		<rect x="228.7" y="104.3" class="st1" width="6.8" height="7"/>
		<rect x="228.7" y="111.3" class="st1" width="6.8" height="7"/>
		<rect x="235.5" y="111.3" class="st1" width="6.8" height="7"/>
		<rect x="235.5" y="118.3" class="st1" width="6.8" height="7"/>
		<rect x="235.5" y="125.3" class="st1" width="6.8" height="7"/>
		<rect x="242.4" y="118.3" class="st1" width="6.8" height="7"/>
		<rect x="242.4" y="131.1" class="st1" width="6.8" height="7"/>
		<rect x="249.2" y="131.1" class="st1" width="6.8" height="7"/>
		<rect x="249.2" y="118.3" class="st1" width="6.8" height="7"/>
		<rect x="256" y="118.3" class="st1" width="6.8" height="7"/>
		<rect x="262.9" y="118.3" class="st1" width="6.8" height="7"/>
		<rect x="269.7" y="118.3" class="st1" width="6.8" height="7"/>
		<rect x="242.4" y="111.3" class="st1" width="6.8" height="7"/>
		<rect x="249.2" y="111.3" class="st1" width="6.8" height="7"/>
		<rect x="221.8" y="111.3" class="st1" width="6.8" height="7"/>
		<rect x="221.8" y="118.3" class="st1" width="6.8" height="7"/>
		<rect x="221.8" y="125.3" class="st1" width="6.8" height="7"/>
	</g>
	<g>
		<rect x="333.4" y="83.3" class="st1" width="6.8" height="7"/>
		<rect x="340.3" y="90.3" class="st1" width="6.8" height="7"/>
		<rect x="340.3" y="97.3" class="st1" width="6.8" height="7"/>
		<rect x="347.2" y="97.3" class="st1" width="6.8" height="7"/>
		<rect x="347.2" y="104.3" class="st1" width="6.8" height="7"/>
		<rect x="354" y="97.3" class="st1" width="6.8" height="7"/>
		<rect x="354" y="104.3" class="st1" width="6.8" height="7"/>
		<rect x="354" y="111.3" class="st1" width="6.8" height="7"/>
		<rect x="360.8" y="104.3" class="st1" width="6.8" height="7"/>
		<rect x="360.8" y="97.3" class="st1" width="6.8" height="7"/>
		<rect x="367.7" y="97.3" class="st1" width="6.8" height="7"/>
		<rect x="374.5" y="97.3" class="st1" width="6.8" height="7"/>
		<rect x="374.5" y="104.3" class="st1" width="6.8" height="7"/>
		<rect x="374.5" y="111.3" class="st1" width="6.8" height="7"/>
		<rect x="367.7" y="111.3" class="st1" width="6.8" height="7"/>
		<rect x="360.8" y="111.3" class="st1" width="6.8" height="7"/>
		<rect x="374.5" y="118.3" class="st1" width="6.8" height="7"/>
		<rect x="374.5" y="125.3" class="st1" width="6.8" height="7"/>
		<rect x="367.7" y="131.1" class="st1" width="6.8" height="7"/>
		<rect x="360.8" y="131.1" class="st1" width="6.8" height="7"/>
		<rect x="381.3" y="104.3" class="st1" width="6.8" height="7"/>
		<rect x="381.3" y="111.3" class="st1" width="6.8" height="7"/>
		<rect x="388.2" y="111.3" class="st1" width="6.8" height="7"/>
		<rect x="388.2" y="118.3" class="st1" width="6.8" height="7"/>
		<rect x="388.2" y="125.3" class="st1" width="6.8" height="7"/>
		<rect x="367.7" y="90.3" class="st1" width="6.8" height="7"/>
		<rect x="374.5" y="83" class="st1" width="6.8" height="7"/>
		<rect x="333.4" y="97.3" class="st1" width="6.8" height="7"/>
		<rect x="333.5" y="104.3" class="st1" width="6.8" height="7"/>
		<rect x="326.6" y="104.3" class="st1" width="6.8" height="7"/>
		<rect x="326.6" y="111.3" class="st1" width="6.8" height="7"/>
		<rect x="333.5" y="111.3" class="st1" width="6.8" height="7"/>
		<rect x="333.4" y="118.3" class="st1" width="6.8" height="7"/>
		<rect x="333.5" y="125.3" class="st1" width="6.8" height="7"/>
		<rect x="340.3" y="118.3" class="st1" width="6.8" height="7"/>
		<rect x="340.3" y="131.1" class="st1" width="6.8" height="7"/>
		<rect x="347.2" y="131.1" class="st1" width="6.8" height="7"/>
		<rect x="347.2" y="118.3" class="st1" width="6.8" height="7"/>
		<rect x="354" y="118.3" class="st1" width="6.8" height="7"/>
		<rect x="360.8" y="118.3" class="st1" width="6.8" height="7"/>
		<rect x="367.7" y="118.3" class="st1" width="6.8" height="7"/>
		<rect x="340.3" y="111.3" class="st1" width="6.8" height="7"/>
		<rect x="347.2" y="111.3" class="st1" width="6.8" height="7"/>
		<rect x="319.8" y="103.6" class="st1" width="6.8" height="7"/>
		<rect x="319.8" y="89.6" class="st1" width="6.8" height="7"/>
		<rect x="319.8" y="96.6" class="st1" width="6.8" height="7"/>
	</g>
	<g>
		<rect x="25.3" y="159.4" class="st1" width="6.8" height="7"/>
		<rect x="32.1" y="166.4" class="st1" width="6.8" height="7"/>
		<rect x="32.1" y="173.4" class="st1" width="6.8" height="7"/>
		<rect x="39" y="173.4" class="st1" width="6.8" height="7"/>
		<rect x="39" y="180.4" class="st1" width="6.8" height="7"/>
		<rect x="45.8" y="173.4" class="st1" width="6.8" height="7"/>
		<rect x="45.8" y="180.4" class="st1" width="6.8" height="7"/>
		<rect x="45.8" y="187.4" class="st1" width="6.8" height="7"/>
		<rect x="52.6" y="180.4" class="st1" width="6.8" height="7"/>
		<rect x="52.6" y="173.4" class="st1" width="6.8" height="7"/>
		<rect x="59.5" y="173.4" class="st1" width="6.8" height="7"/>
		<rect x="66.3" y="173.4" class="st1" width="6.8" height="7"/>
		<rect x="66.3" y="180.4" class="st1" width="6.8" height="7"/>
		<rect x="66.3" y="187.4" class="st1" width="6.8" height="7"/>
		<rect x="59.5" y="187.4" class="st1" width="6.8" height="7"/>
		<rect x="52.6" y="187.4" class="st1" width="6.8" height="7"/>
		<rect x="66.3" y="194.4" class="st1" width="6.8" height="7"/>
		<rect x="66.3" y="201.4" class="st1" width="6.8" height="7"/>
		<rect x="59.5" y="207.3" class="st1" width="6.8" height="7"/>
		<rect x="52.6" y="207.3" class="st1" width="6.8" height="7"/>
		<rect x="73.2" y="180.4" class="st1" width="6.8" height="7"/>
		<rect x="73.2" y="187.4" class="st1" width="6.8" height="7"/>
		<rect x="80" y="166.4" class="st1" width="6.8" height="7"/>
		<rect x="80" y="173.4" class="st1" width="6.8" height="7"/>
		<rect x="80" y="180.4" class="st1" width="6.8" height="7"/>
		<rect x="59.5" y="166.4" class="st1" width="6.8" height="7"/>
		<rect x="66.3" y="159.1" class="st1" width="6.8" height="7"/>
		<rect x="25.3" y="173.4" class="st1" width="6.8" height="7"/>
		<rect x="25.3" y="180.4" class="st1" width="6.8" height="7"/>
		<rect x="18.4" y="180.4" class="st1" width="6.8" height="7"/>
		<rect x="18.4" y="187.4" class="st1" width="6.8" height="7"/>
		<rect x="25.3" y="187.4" class="st1" width="6.8" height="7"/>
		<rect x="25.3" y="194.4" class="st1" width="6.8" height="7"/>
		<rect x="25.3" y="201.4" class="st1" width="6.8" height="7"/>
		<rect x="32.1" y="194.4" class="st1" width="6.8" height="7"/>
		<rect x="32.1" y="207.3" class="st1" width="6.8" height="7"/>
		<rect x="39" y="207.3" class="st1" width="6.8" height="7"/>
		<rect x="39" y="194.4" class="st1" width="6.8" height="7"/>
		<rect x="45.8" y="194.4" class="st1" width="6.8" height="7"/>
		<rect x="52.6" y="194.4" class="st1" width="6.8" height="7"/>
		<rect x="59.5" y="194.4" class="st1" width="6.8" height="7"/>
		<rect x="32.1" y="187.4" class="st1" width="6.8" height="7"/>
		<rect x="39" y="187.4" class="st1" width="6.8" height="7"/>
		<rect x="11.6" y="187.4" class="st1" width="6.8" height="7"/>
		<rect x="11.6" y="194.4" class="st1" width="6.8" height="7"/>
		<rect x="11.6" y="201.4" class="st1" width="6.8" height="7"/>
	</g>
	<g>
		<rect x="123.2" y="159.4" class="st1" width="6.8" height="7"/>
		<rect x="130.1" y="166.4" class="st1" width="6.8" height="7"/>
		<rect x="130.1" y="173.4" class="st1" width="6.8" height="7"/>
		<rect x="136.9" y="173.4" class="st1" width="6.8" height="7"/>
		<rect x="136.9" y="180.4" class="st1" width="6.8" height="7"/>
		<rect x="143.8" y="173.4" class="st1" width="6.8" height="7"/>
		<rect x="143.8" y="180.4" class="st1" width="6.8" height="7"/>
		<rect x="143.8" y="187.4" class="st1" width="6.8" height="7"/>
		<rect x="150.6" y="180.4" class="st1" width="6.8" height="7"/>
		<rect x="150.6" y="173.4" class="st1" width="6.8" height="7"/>
		<rect x="157.4" y="173.4" class="st1" width="6.8" height="7"/>
		<rect x="164.3" y="173.4" class="st1" width="6.8" height="7"/>
		<rect x="164.3" y="180.4" class="st1" width="6.8" height="7"/>
		<rect x="164.3" y="187.4" class="st1" width="6.8" height="7"/>
		<rect x="157.4" y="187.4" class="st1" width="6.8" height="7"/>
		<rect x="150.6" y="187.4" class="st1" width="6.8" height="7"/>
		<rect x="164.3" y="194.4" class="st1" width="6.8" height="7"/>
		<rect x="164.3" y="201.4" class="st1" width="6.8" height="7"/>
		<rect x="157.4" y="207.3" class="st1" width="6.8" height="7"/>
		<rect x="150.6" y="207.3" class="st1" width="6.8" height="7"/>
		<rect x="171.1" y="180.4" class="st1" width="6.8" height="7"/>
		<rect x="171.1" y="187.4" class="st1" width="6.8" height="7"/>
		<rect x="177.9" y="187.4" class="st1" width="6.8" height="7"/>
		<rect x="177.9" y="194.4" class="st1" width="6.8" height="7"/>
		<rect x="177.9" y="201.4" class="st1" width="6.8" height="7"/>
		<rect x="157.4" y="166.4" class="st1" width="6.8" height="7"/>
		<rect x="164.3" y="159.1" class="st1" width="6.8" height="7"/>
		<rect x="123.2" y="173.4" class="st1" width="6.8" height="7"/>
		<rect x="123.2" y="180.4" class="st1" width="6.8" height="7"/>
		<rect x="116.4" y="180.4" class="st1" width="6.8" height="7"/>
		<rect x="116.4" y="187.4" class="st1" width="6.8" height="7"/>
		<rect x="123.2" y="187.4" class="st1" width="6.8" height="7"/>
		<rect x="123.2" y="194.4" class="st1" width="6.8" height="7"/>
		<rect x="123.2" y="201.4" class="st1" width="6.8" height="7"/>
		<rect x="130.1" y="194.4" class="st1" width="6.8" height="7"/>
		<rect x="130.1" y="207.3" class="st1" width="6.8" height="7"/>
		<rect x="136.9" y="207.3" class="st1" width="6.8" height="7"/>
		<rect x="136.9" y="194.4" class="st1" width="6.8" height="7"/>
		<rect x="143.8" y="194.4" class="st1" width="6.8" height="7"/>
		<rect x="150.6" y="194.4" class="st1" width="6.8" height="7"/>
		<rect x="157.4" y="194.4" class="st1" width="6.8" height="7"/>
		<rect x="130.1" y="187.4" class="st1" width="6.8" height="7"/>
		<rect x="136.9" y="187.4" class="st1" width="6.8" height="7"/>
		<rect x="109.5" y="179.7" class="st1" width="6.8" height="7"/>
		<rect x="109.5" y="165.7" class="st1" width="6.8" height="7"/>
		<rect x="109.5" y="172.7" class="st1" width="6.8" height="7"/>
	</g>
	<g>
		<rect x="235.5" y="160.1" class="st1" width="6.8" height="7"/>
		<rect x="242.4" y="167.1" class="st1" width="6.8" height="7"/>
		<rect x="242.4" y="174.1" class="st1" width="6.8" height="7"/>
		<rect x="249.2" y="174.1" class="st1" width="6.8" height="7"/>
		<rect x="249.2" y="181.1" class="st1" width="6.8" height="7"/>
		<rect x="256" y="174.1" class="st1" width="6.8" height="7"/>
		<rect x="256" y="181.1" class="st1" width="6.8" height="7"/>
		<rect x="256" y="188.1" class="st1" width="6.8" height="7"/>
		<rect x="262.9" y="181.1" class="st1" width="6.8" height="7"/>
		<rect x="262.9" y="174.1" class="st1" width="6.8" height="7"/>
		<rect x="269.7" y="174.1" class="st1" width="6.8" height="7"/>
		<rect x="276.6" y="174.1" class="st1" width="6.8" height="7"/>
		<rect x="276.6" y="181.1" class="st1" width="6.8" height="7"/>
		<rect x="276.6" y="188.1" class="st1" width="6.8" height="7"/>
		<rect x="269.7" y="188.1" class="st1" width="6.8" height="7"/>
		<rect x="262.9" y="188.1" class="st1" width="6.8" height="7"/>
		<rect x="276.6" y="195.1" class="st1" width="6.8" height="7"/>
		<rect x="276.6" y="202.1" class="st1" width="6.8" height="7"/>
		<rect x="269.7" y="208" class="st1" width="6.8" height="7"/>
		<rect x="262.9" y="208" class="st1" width="6.8" height="7"/>
		<rect x="283.4" y="181.1" class="st1" width="6.8" height="7"/>
		<rect x="283.4" y="188.1" class="st1" width="6.8" height="7"/>
		<rect x="290.2" y="167.1" class="st1" width="6.8" height="7"/>
		<rect x="290.2" y="174.1" class="st1" width="6.8" height="7"/>
		<rect x="290.2" y="181.1" class="st1" width="6.8" height="7"/>
		<rect x="269.7" y="167.1" class="st1" width="6.8" height="7"/>
		<rect x="276.6" y="159.8" class="st1" width="6.8" height="7"/>
		<rect x="235.5" y="174.1" class="st1" width="6.8" height="7"/>
		<rect x="235.5" y="181.1" class="st1" width="6.8" height="7"/>
		<rect x="228.7" y="181.1" class="st1" width="6.8" height="7"/>
		<rect x="228.7" y="188.1" class="st1" width="6.8" height="7"/>
		<rect x="235.5" y="188.1" class="st1" width="6.8" height="7"/>
		<rect x="235.5" y="195.1" class="st1" width="6.8" height="7"/>
		<rect x="235.5" y="202.1" class="st1" width="6.8" height="7"/>
		<rect x="242.4" y="195.1" class="st1" width="6.8" height="7"/>
		<rect x="242.4" y="208" class="st1" width="6.8" height="7"/>
		<rect x="249.2" y="208" class="st1" width="6.8" height="7"/>
		<rect x="249.2" y="195.1" class="st1" width="6.8" height="7"/>
		<rect x="256" y="195.1" class="st1" width="6.8" height="7"/>
		<rect x="262.9" y="195.1" class="st1" width="6.8" height="7"/>
		<rect x="269.7" y="195.1" class="st1" width="6.8" height="7"/>
		<rect x="242.4" y="188.1" class="st1" width="6.8" height="7"/>
		<rect x="249.2" y="188.1" class="st1" width="6.8" height="7"/>
		<rect x="221.8" y="188.1" class="st1" width="6.8" height="7"/>
		<rect x="221.8" y="195.1" class="st1" width="6.8" height="7"/>
		<rect x="221.8" y="202.1" class="st1" width="6.8" height="7"/>
	</g>
	<g>
		<rect x="333.4" y="160.1" class="st1" width="6.8" height="7"/>
		<rect x="340.3" y="167.1" class="st1" width="6.8" height="7"/>
		<rect x="340.3" y="174.1" class="st1" width="6.8" height="7"/>
		<rect x="347.2" y="174.1" class="st1" width="6.8" height="7"/>
		<rect x="347.2" y="181.1" class="st1" width="6.8" height="7"/>
		<rect x="354" y="174.1" class="st1" width="6.8" height="7"/>
		<rect x="354" y="181.1" class="st1" width="6.8" height="7"/>
		<rect x="354" y="188.1" class="st1" width="6.8" height="7"/>
		<rect x="360.8" y="181.1" class="st1" width="6.8" height="7"/>
		<rect x="360.8" y="174.1" class="st1" width="6.8" height="7"/>
		<rect x="367.7" y="174.1" class="st1" width="6.8" height="7"/>
		<rect x="374.5" y="174.1" class="st1" width="6.8" height="7"/>
		<rect x="374.5" y="181.1" class="st1" width="6.8" height="7"/>
		<rect x="374.5" y="188.1" class="st1" width="6.8" height="7"/>
		<rect x="367.7" y="188.1" class="st1" width="6.8" height="7"/>
		<rect x="360.8" y="188.1" class="st1" width="6.8" height="7"/>
		<rect x="374.5" y="195.1" class="st1" width="6.8" height="7"/>
		<rect x="374.5" y="202.1" class="st1" width="6.8" height="7"/>
		<rect x="367.7" y="208" class="st1" width="6.8" height="7"/>
		<rect x="360.8" y="208" class="st1" width="6.8" height="7"/>
		<rect x="381.3" y="181.1" class="st1" width="6.8" height="7"/>
		<rect x="381.3" y="188.1" class="st1" width="6.8" height="7"/>
		<rect x="388.2" y="188.1" class="st1" width="6.8" height="7"/>
		<rect x="388.2" y="195.1" class="st1" width="6.8" height="7"/>
		<rect x="388.2" y="202.1" class="st1" width="6.8" height="7"/>
		<rect x="367.7" y="167.1" class="st1" width="6.8" height="7"/>
		<rect x="374.5" y="159.8" class="st1" width="6.8" height="7"/>
		<rect x="333.4" y="174.1" class="st1" width="6.8" height="7"/>
		<rect x="333.5" y="181.1" class="st1" width="6.8" height="7"/>
		<rect x="326.6" y="181.1" class="st1" width="6.8" height="7"/>
		<rect x="326.6" y="188.1" class="st1" width="6.8" height="7"/>
		<rect x="333.5" y="188.1" class="st1" width="6.8" height="7"/>
		<rect x="333.4" y="195.1" class="st1" width="6.8" height="7"/>
		<rect x="333.5" y="202.1" class="st1" width="6.8" height="7"/>
		<rect x="340.3" y="195.1" class="st1" width="6.8" height="7"/>
		<rect x="340.3" y="208" class="st1" width="6.8" height="7"/>
		<rect x="347.2" y="208" class="st1" width="6.8" height="7"/>
		<rect x="347.2" y="195.1" class="st1" width="6.8" height="7"/>
		<rect x="354" y="195.1" class="st1" width="6.8" height="7"/>
		<rect x="360.8" y="195.1" class="st1" width="6.8" height="7"/>
		<rect x="367.7" y="195.1" class="st1" width="6.8" height="7"/>
		<rect x="340.3" y="188.1" class="st1" width="6.8" height="7"/>
		<rect x="347.2" y="188.1" class="st1" width="6.8" height="7"/>
		<rect x="319.8" y="180.4" class="st1" width="6.8" height="7"/>
		<rect x="319.8" y="166.4" class="st1" width="6.8" height="7"/>
		<rect x="319.8" y="173.4" class="st1" width="6.8" height="7"/>
	</g>
	<g>
		<rect x="25.3" y="11.8" class="st1" width="6.8" height="7"/>
		<rect x="32.1" y="18.8" class="st1" width="6.8" height="7"/>
		<rect x="32.1" y="25.7" class="st1" width="6.8" height="7"/>
		<rect x="39" y="25.7" class="st1" width="6.8" height="7"/>
		<rect x="39" y="32.8" class="st1" width="6.8" height="7"/>
		<rect x="45.8" y="25.7" class="st1" width="6.8" height="7"/>
		<rect x="45.8" y="32.8" class="st1" width="6.8" height="7"/>
		<rect x="45.8" y="39.8" class="st1" width="6.8" height="7"/>
		<rect x="52.6" y="32.8" class="st1" width="6.8" height="7"/>
		<rect x="52.6" y="25.7" class="st1" width="6.8" height="7"/>
		<rect x="59.5" y="25.7" class="st1" width="6.8" height="7"/>
		<rect x="66.3" y="25.7" class="st1" width="6.8" height="7"/>
		<rect x="66.3" y="32.8" class="st1" width="6.8" height="7"/>
		<rect x="66.3" y="39.8" class="st1" width="6.8" height="7"/>
		<rect x="59.5" y="39.8" class="st1" width="6.8" height="7"/>
		<rect x="52.6" y="39.8" class="st1" width="6.8" height="7"/>
		<rect x="66.3" y="46.8" class="st1" width="6.8" height="7"/>
		<rect x="66.3" y="53.8" class="st1" width="6.8" height="7"/>
		<rect x="59.5" y="59.6" class="st1" width="6.8" height="7"/>
		<rect x="52.6" y="59.6" class="st1" width="6.8" height="7"/>
		<rect x="73.2" y="32.8" class="st1" width="6.8" height="7"/>
		<rect x="73.2" y="39.8" class="st1" width="6.8" height="7"/>
		<rect x="80" y="18.8" class="st1" width="6.8" height="7"/>
		<rect x="80" y="25.8" class="st1" width="6.8" height="7"/>
		<rect x="80" y="32.8" class="st1" width="6.8" height="7"/>
		<rect x="59.5" y="18.8" class="st1" width="6.8" height="7"/>
		<rect x="66.3" y="11.5" class="st1" width="6.8" height="7"/>
		<rect x="25.3" y="25.7" class="st1" width="6.8" height="7"/>
		<rect x="25.3" y="32.8" class="st1" width="6.8" height="7"/>
		<rect x="18.4" y="32.8" class="st1" width="6.8" height="7"/>
		<rect x="18.4" y="39.8" class="st1" width="6.8" height="7"/>
		<rect x="25.3" y="39.8" class="st1" width="6.8" height="7"/>
		<rect x="25.3" y="46.8" class="st1" width="6.8" height="7"/>
		<rect x="25.3" y="53.8" class="st1" width="6.8" height="7"/>
		<rect x="32.1" y="46.8" class="st1" width="6.8" height="7"/>
		<rect x="32.1" y="59.6" class="st1" width="6.8" height="7"/>
		<rect x="39" y="59.6" class="st1" width="6.8" height="7"/>
		<rect x="39" y="46.8" class="st1" width="6.8" height="7"/>
		<rect x="45.8" y="46.8" class="st1" width="6.8" height="7"/>
		<rect x="52.6" y="46.8" class="st1" width="6.8" height="7"/>
		<rect x="59.5" y="46.8" class="st1" width="6.8" height="7"/>
		<rect x="32.1" y="39.8" class="st1" width="6.8" height="7"/>
		<rect x="39" y="39.8" class="st1" width="6.8" height="7"/>
		<rect x="11.6" y="39.8" class="st1" width="6.8" height="7"/>
		<rect x="11.6" y="46.8" class="st1" width="6.8" height="7"/>
		<rect x="11.6" y="53.8" class="st1" width="6.8" height="7"/>
	</g>
	<g>
		<rect x="123.2" y="11.8" class="st1" width="6.8" height="7"/>
		<rect x="130.1" y="18.8" class="st1" width="6.8" height="7"/>
		<rect x="130.1" y="25.7" class="st1" width="6.8" height="7"/>
		<rect x="136.9" y="25.7" class="st1" width="6.8" height="7"/>
		<rect x="136.9" y="32.8" class="st1" width="6.8" height="7"/>
		<rect x="143.8" y="25.7" class="st1" width="6.8" height="7"/>
		<rect x="143.8" y="32.8" class="st1" width="6.8" height="7"/>
		<rect x="143.8" y="39.8" class="st1" width="6.8" height="7"/>
		<rect x="150.6" y="32.8" class="st1" width="6.8" height="7"/>
		<rect x="150.6" y="25.7" class="st1" width="6.8" height="7"/>
		<rect x="157.4" y="25.7" class="st1" width="6.8" height="7"/>
		<rect x="164.3" y="25.7" class="st1" width="6.8" height="7"/>
		<rect x="164.3" y="32.8" class="st1" width="6.8" height="7"/>
		<rect x="164.3" y="39.8" class="st1" width="6.8" height="7"/>
		<rect x="157.4" y="39.8" class="st1" width="6.8" height="7"/>
		<rect x="150.6" y="39.8" class="st1" width="6.8" height="7"/>
		<rect x="164.3" y="46.8" class="st1" width="6.8" height="7"/>
		<rect x="164.3" y="53.8" class="st1" width="6.8" height="7"/>
		<rect x="157.4" y="59.6" class="st1" width="6.8" height="7"/>
		<rect x="150.6" y="59.6" class="st1" width="6.8" height="7"/>
		<rect x="171.1" y="32.8" class="st1" width="6.8" height="7"/>
		<rect x="171.1" y="39.8" class="st1" width="6.8" height="7"/>
		<rect x="177.9" y="39.8" class="st1" width="6.8" height="7"/>
		<rect x="177.9" y="46.8" class="st1" width="6.8" height="7"/>
		<rect x="177.9" y="53.8" class="st1" width="6.8" height="7"/>
		<rect x="157.4" y="18.8" class="st1" width="6.8" height="7"/>
		<rect x="164.3" y="11.5" class="st1" width="6.8" height="7"/>
		<rect x="123.2" y="25.7" class="st1" width="6.8" height="7"/>
		<rect x="123.2" y="32.8" class="st1" width="6.8" height="7"/>
		<rect x="116.4" y="32.8" class="st1" width="6.8" height="7"/>
		<rect x="116.4" y="39.8" class="st1" width="6.8" height="7"/>
		<rect x="123.2" y="39.8" class="st1" width="6.8" height="7"/>
		<rect x="123.2" y="46.8" class="st1" width="6.8" height="7"/>
		<rect x="123.2" y="53.8" class="st1" width="6.8" height="7"/>
		<rect x="130.1" y="46.8" class="st1" width="6.8" height="7"/>
		<rect x="130.1" y="59.6" class="st1" width="6.8" height="7"/>
		<rect x="136.9" y="59.6" class="st1" width="6.8" height="7"/>
		<rect x="136.9" y="46.8" class="st1" width="6.8" height="7"/>
		<rect x="143.8" y="46.8" class="st1" width="6.8" height="7"/>
		<rect x="150.6" y="46.8" class="st1" width="6.8" height="7"/>
		<rect x="157.4" y="46.8" class="st1" width="6.8" height="7"/>
		<rect x="130.1" y="39.8" class="st1" width="6.8" height="7"/>
		<rect x="136.9" y="39.8" class="st1" width="6.8" height="7"/>
		<rect x="109.5" y="32" class="st1" width="6.8" height="7"/>
		<rect x="109.5" y="18.1" class="st1" width="6.8" height="7"/>
		<rect x="109.5" y="25.1" class="st1" width="6.8" height="7"/>
	</g>
	<g>
		<rect x="235.5" y="12.5" class="st1" width="6.8" height="7"/>
		<rect x="242.4" y="19.5" class="st1" width="6.8" height="7"/>
		<rect x="242.4" y="26.4" class="st1" width="6.8" height="7"/>
		<rect x="249.2" y="26.4" class="st1" width="6.8" height="7"/>
		<rect x="249.2" y="33.4" class="st1" width="6.8" height="7"/>
		<rect x="256" y="26.4" class="st1" width="6.8" height="7"/>
		<rect x="256" y="33.4" class="st1" width="6.8" height="7"/>
		<rect x="256" y="40.5" class="st1" width="6.8" height="7"/>
		<rect x="262.9" y="33.4" class="st1" width="6.8" height="7"/>
		<rect x="262.9" y="26.4" class="st1" width="6.8" height="7"/>
		<rect x="269.7" y="26.4" class="st1" width="6.8" height="7"/>
		<rect x="276.6" y="26.4" class="st1" width="6.8" height="7"/>
		<rect x="276.6" y="33.4" class="st1" width="6.8" height="7"/>
		<rect x="276.6" y="40.5" class="st1" width="6.8" height="7"/>
		<rect x="269.7" y="40.5" class="st1" width="6.8" height="7"/>
		<rect x="262.9" y="40.5" class="st1" width="6.8" height="7"/>
		<rect x="276.6" y="47.5" class="st1" width="6.8" height="7"/>
		<rect x="276.6" y="54.5" class="st1" width="6.8" height="7"/>
		<rect x="269.7" y="60.3" class="st1" width="6.8" height="7"/>
		<rect x="262.9" y="60.3" class="st1" width="6.8" height="7"/>
		<rect x="283.4" y="33.4" class="st1" width="6.8" height="7"/>
		<rect x="283.4" y="40.5" class="st1" width="6.8" height="7"/>
		<rect x="290.2" y="19.5" class="st1" width="6.8" height="7"/>
		<rect x="290.2" y="26.5" class="st1" width="6.8" height="7"/>
		<rect x="290.2" y="33.5" class="st1" width="6.8" height="7"/>
		<rect x="269.7" y="19.5" class="st1" width="6.8" height="7"/>
		<rect x="276.6" y="12.2" class="st1" width="6.8" height="7"/>
		<rect x="235.5" y="26.4" class="st1" width="6.8" height="7"/>
		<rect x="235.5" y="33.4" class="st1" width="6.8" height="7"/>
		<rect x="228.7" y="33.4" class="st1" width="6.8" height="7"/>
		<rect x="228.7" y="40.5" class="st1" width="6.8" height="7"/>
		<rect x="235.5" y="40.5" class="st1" width="6.8" height="7"/>
		<rect x="235.5" y="47.5" class="st1" width="6.8" height="7"/>
		<rect x="235.5" y="54.5" class="st1" width="6.8" height="7"/>
		<rect x="242.4" y="47.5" class="st1" width="6.8" height="7"/>
		<rect x="242.4" y="60.3" class="st1" width="6.8" height="7"/>
		<rect x="249.2" y="60.3" class="st1" width="6.8" height="7"/>
		<rect x="249.2" y="47.5" class="st1" width="6.8" height="7"/>
		<rect x="256" y="47.5" class="st1" width="6.8" height="7"/>
		<rect x="262.9" y="47.5" class="st1" width="6.8" height="7"/>
		<rect x="269.7" y="47.5" class="st1" width="6.8" height="7"/>
		<rect x="242.4" y="40.5" class="st1" width="6.8" height="7"/>
		<rect x="249.2" y="40.5" class="st1" width="6.8" height="7"/>
		<rect x="221.8" y="40.5" class="st1" width="6.8" height="7"/>
		<rect x="221.8" y="47.5" class="st1" width="6.8" height="7"/>
		<rect x="221.8" y="54.5" class="st1" width="6.8" height="7"/>
	</g>
	<g>
		<rect x="333.4" y="12.5" class="st1" width="6.8" height="7"/>
		<rect x="340.3" y="19.5" class="st1" width="6.8" height="7"/>
		<rect x="340.3" y="26.4" class="st1" width="6.8" height="7"/>
		<rect x="347.2" y="26.4" class="st1" width="6.8" height="7"/>
		<rect x="347.2" y="33.4" class="st1" width="6.8" height="7"/>
		<rect x="354" y="26.4" class="st1" width="6.8" height="7"/>
		<rect x="354" y="33.4" class="st1" width="6.8" height="7"/>
		<rect x="354" y="40.5" class="st1" width="6.8" height="7"/>
		<rect x="360.8" y="33.4" class="st1" width="6.8" height="7"/>
		<rect x="360.8" y="26.4" class="st1" width="6.8" height="7"/>
		<rect x="367.7" y="26.4" class="st1" width="6.8" height="7"/>
		<rect x="374.5" y="26.4" class="st1" width="6.8" height="7"/>
		<rect x="374.5" y="33.4" class="st1" width="6.8" height="7"/>
		<rect x="374.5" y="40.5" class="st1" width="6.8" height="7"/>
		<rect x="367.7" y="40.5" class="st1" width="6.8" height="7"/>
		<rect x="360.8" y="40.5" class="st1" width="6.8" height="7"/>
		<rect x="374.5" y="47.5" class="st1" width="6.8" height="7"/>
		<rect x="374.5" y="54.5" class="st1" width="6.8" height="7"/>
		<rect x="367.7" y="60.3" class="st1" width="6.8" height="7"/>
		<rect x="360.8" y="60.3" class="st1" width="6.8" height="7"/>
		<rect x="381.3" y="33.4" class="st1" width="6.8" height="7"/>
		<rect x="381.3" y="40.5" class="st1" width="6.8" height="7"/>
		<rect x="388.2" y="40.5" class="st1" width="6.8" height="7"/>
		<rect x="388.2" y="47.5" class="st1" width="6.8" height="7"/>
		<rect x="388.2" y="54.5" class="st1" width="6.8" height="7"/>
		<rect x="367.7" y="19.5" class="st1" width="6.8" height="7"/>
		<rect x="374.5" y="12.2" class="st1" width="6.8" height="7"/>
		<rect x="333.4" y="26.4" class="st1" width="6.8" height="7"/>
		<rect x="333.5" y="33.4" class="st1" width="6.8" height="7"/>
		<rect x="326.6" y="33.4" class="st1" width="6.8" height="7"/>
		<rect x="326.6" y="40.5" class="st1" width="6.8" height="7"/>
		<rect x="333.5" y="40.5" class="st1" width="6.8" height="7"/>
		<rect x="333.4" y="47.5" class="st1" width="6.8" height="7"/>
		<rect x="333.5" y="54.5" class="st1" width="6.8" height="7"/>
		<rect x="340.3" y="47.5" class="st1" width="6.8" height="7"/>
		<rect x="340.3" y="60.3" class="st1" width="6.8" height="7"/>
		<rect x="347.2" y="60.3" class="st1" width="6.8" height="7"/>
		<rect x="347.2" y="47.5" class="st1" width="6.8" height="7"/>
		<rect x="354" y="47.5" class="st1" width="6.8" height="7"/>
		<rect x="360.8" y="47.5" class="st1" width="6.8" height="7"/>
		<rect x="367.7" y="47.5" class="st1" width="6.8" height="7"/>
		<rect x="340.3" y="40.5" class="st1" width="6.8" height="7"/>
		<rect x="347.2" y="40.5" class="st1" width="6.8" height="7"/>
		<rect x="319.8" y="32.7" class="st1" width="6.8" height="7"/>
		<rect x="319.8" y="18.8" class="st1" width="6.8" height="7"/>
		<rect x="319.8" y="25.8" class="st1" width="6.8" height="7"/>
	</g>
</g>
</svg>
