<?xml version="1.0" encoding="utf-8"?>
<!-- Generator: Adobe Illustrator 19.1.0, SVG Export Plug-In . SVG Version: 6.00 Build 0)  -->
<svg version="1.1" id="Layer_1" xmlns="http://www.w3.org/2000/svg" xmlns:xlink="http://www.w3.org/1999/xlink" x="0px" y="0px"
	 viewBox="0 0 186.5 56.3" style="enable-background:new 0 0 186.5 56.3;" xml:space="preserve">
<style type="text/css">
	.st0{fill:#4DA6A6;}
	.st1{fill:#66CCCC;}
</style>
<g>
	<g>
		<g>
			<rect x="1.6" y="1.5" width="184" height="53.3"/>
			<g>
				<g>
					<g>
						<g>
							<path class="st0" d="M185,54.8c0.1,0.2,0.3,0.1,0.2-0.6l-0.3-0.5L185,54.8z"/>
							<path class="st0" d="M185.6,50.2c-0.2-0.8-0.4-1.7-0.7-1.2c0.3,0.8,0.2,1,0.6,1.9c0,0.7-0.1,1.2-0.2,1.1
								c0.1,0.2-0.1,1.1,0.1,1.4c0.3-0.9,0.3-2,0.1-3.2C185.4,49.9,185.5,50.1,185.6,50.2z"/>
							<path class="st0" d="M167,1l0.4,0C167.3,1,167.2,1,167,1z"/>
							<path class="st0" d="M125.3,0.8c0.3,0,0.5,0,0.5-0.1C125.5,0.8,125.2,0.8,125.3,0.8z"/>
							<path class="st0" d="M118.2,0.5c0.2,0,0.3,0,0.4,0C118.4,0.5,118.3,0.5,118.2,0.5z"/>
							<path class="st0" d="M167,1l-1.1-0.1C165.8,1,166.5,1,167,1z"/>
							<path class="st0" d="M184.8,40.9c0,0.2,0,0.4,0.1,0.6C184.8,41.3,184.8,41.1,184.8,40.9C184.8,40.9,184.8,40.9,184.8,40.9z"
								/>
							<path class="st0" d="M186,0.8l0.3,0l0,0.2c0,0.1,0.1,0.2,0.1,0.3l-0.1-0.5L186,0.8z"/>
							<path class="st0" d="M186.4,15.4c0-0.3-0.3-0.4-0.4-0.6c0.1,0.2,0.2,0.4,0.2,0.7C186.3,15.5,186.3,15.5,186.4,15.4z"/>
							<path class="st0" d="M185.9,37.7l0,0.4C185.9,38,185.9,37.9,185.9,37.7z"/>
							<path class="st0" d="M175.3,0.7c0,0-0.1-0.1-0.1-0.1C175.2,0.6,175.2,0.7,175.3,0.7z"/>
							<path class="st0" d="M169.3,53.5C169.3,53.5,169.3,53.5,169.3,53.5C169.3,53.5,169.4,53.5,169.3,53.5z"/>
							<path class="st0" d="M185.6,54.9l-0.2,0c0,0.1,0,0.1,0,0.2L185.6,54.9z"/>
							<path class="st0" d="M105.1,0.1C105.2,0.1,105.2,0.1,105.1,0.1C105.5,0.1,105.4,0.1,105.1,0.1z"/>
							<path class="st0" d="M0.5,17.6c0.3-1.4,0.3,2.2,0.6,0.2C0.9,18,0.6,15.9,0.5,17.6z"/>
							<path class="st0" d="M184.8,40.5c0-0.2,0-0.4,0-0.6C184.8,40.2,184.8,40.4,184.8,40.5z"/>
							<path class="st0" d="M1.1,17.8L1.1,17.8l0-0.2C1.1,17.6,1.1,17.7,1.1,17.8z"/>
							<path class="st0" d="M75.1,0.3c0.1,0,0.2,0.1,0.3,0.1C75.4,0.4,75.3,0.3,75.1,0.3z"/>
							<path class="st0" d="M97.5,0.7l-0.6,0C97.2,0.7,97.3,0.7,97.5,0.7z"/>
							<path class="st0" d="M63.5,0.7c-0.3,0-0.4-0.1-0.8,0c0,0,0.1,0,0.1,0C63,0.7,63.2,0.6,63.5,0.7z"/>
							<path class="st0" d="M51.4,0.7c0.1,0,0.1,0,0.2,0.1c0.1,0,0.3,0,0.4,0L51.4,0.7z"/>
							<path class="st0" d="M132.5,53.6c0.3,0.1,0.4,0.2,0.6,0.3C132.9,53.7,134.7,53.6,132.5,53.6z"/>
							<path class="st0" d="M184.9,40.9c-0.1-0.1-0.1-0.2-0.1-0.4c0,0.1,0,0.3,0,0.4C184.9,41,184.9,41,184.9,40.9z"/>
							<path class="st0" d="M63,2.9l-1.9,0C61.6,2.9,62.3,2.9,63,2.9z"/>
							<path class="st0" d="M45.8,53.7l0.4,0C46.1,53.6,45.9,53.6,45.8,53.7z"/>
							<path class="st0" d="M55.4,2.9c-0.3-0.1-0.7-0.2-1.1-0.2c-0.1,0-0.2,0-0.2,0.1L55.4,2.9z"/>
							<path class="st0" d="M133.1,53.9L133.1,53.9L133.1,53.9z"/>
							<path class="st0" d="M145.7,53.2c-1.8,0-0.9,0.4-1.2,0.6c-2.2,0.1-1-0.3-1.8-0.5c-1.4,0.1-2.4,0.4-3.4,0.4
								c-0.1-0.1-0.3-0.1,0-0.2c-1.4,0.3-4.3,0-6,0.4c-0.1,0-0.2-0.1-0.2-0.1c0.3,0.2,0.3,0.4,0.3,0.5c-0.8,0-1.5,0.2-1.8,0
								c0.5,0,0.5-0.1,0.8-0.2l-0.9,0.1c-0.8-0.3,1.2-0.1,1.2-0.4c-1.7,0.1-3.6,0.4-4.9,0.3c-0.3-0.3,3-0.1,1.3-0.4l2,0.1
								c-1.5-0.5,1.2,0-0.2-0.5c-2.6-0.1-2.9,0.2-5.5,0.1c-0.6,0.2,0.2,0.3-0.4,0.5c-3.7,0.3-2.9-0.9-5.6-0.4
								c-0.7,0.2-1,0.7-2.9,0.4l0.7-0.4c-2.5,0-1.4,0.6-4.1,0.3c0.5-0.2,2-0.1,1.6-0.2c-1.7-0.3-1.2,0.2-2.5,0.2l-0.3-0.3
								c-2.7,0.1-5.7,0.3-8.7,0.4c0.2-0.1,0.7-0.2,0-0.3c-3.8,0.2-8,0-11.7-0.2l-1.4,0.3c-0.3,0-0.6-0.1-0.2-0.2
								c-1.4-0.1-0.1,0.2-0.8,0.3c-0.8,0-1.1-0.2-0.6-0.3c-2.5,0.2-7.1,0.5-9.7,0.2l0.5-0.1c-2-0.1-2.3,0.6-4.2,0.3l0.4-0.1
								c-4.4-0.1-9.4,0.1-12.8-0.3c-0.6,0.4-4.4-0.2-4.7,0.4c-2.5-0.3-1.8-0.4-5.4-0.6c-1,0-1.4,0.4-2.6,0.4l0-0.3l-1.6,0.3
								l-0.9-0.4l-1.1,0.1c0.4,0,0.9,0.1,0.9,0.2c-1.7,0.1-4.2-0.2-4.3-0.4l-4.1,0.3c0.1-0.1,0.8-0.2,1.3-0.2
								c-2.2,0.3-0.4-0.3-2.4,0c0.3,0.1-0.1,0.2-0.2,0.2c-1-0.2-3.3-0.2-5-0.1l0.3-0.2c-3-0.1-6.4,0.1-9.8,0.1
								C24.3,53.6,24,54,23,54l-0.4-0.3c-0.6,0.2,1,0.1-0.3,0.4c-1.3,0-0.9-0.4-0.1-0.5l-1.5,0.1c-0.1-0.1,0.3-0.1,0.4-0.3
								c-0.6,0.2-2.7-0.3-3.6,0l-0.1-0.1c-3.4,0-5,0.1-7.7,0.1c-0.1,0.3-1.1,0.2-2,0.4c-0.9-0.1-1.9-0.1-2.9-0.2
								c-0.5,0-1-0.1-1.5-0.1c-0.1,0-0.3,0-0.4,0c0-0.1,0-0.1,0-0.2c0-0.1-0.1-0.2-0.1-0.2c0-0.1-0.1-0.2-0.1-0.1
								c-0.1,0-0.1,0.1-0.2-0.3c0.3-0.1,0.2-2.6,0.4-1.3c0-2.9-0.1-3.8-0.3-7.5c-0.1,0.4-0.2,0.9-0.2,0.6c0-0.7,0.1-1.5,0.2-1.4
								l0,0.2c-0.4-4.2,0.7-9.7,0.2-13l0,0.2l-0.3-3.5c0-1.6,0.2,1,0.4-0.2c-0.4-3.7,0.1-5.9-0.2-9c0.8-2.4-0.1-8.4,0.4-11.6
								L2.9,6.4C2.8,5.6,3,5.4,3.1,4.8C2.9,4.9,2.9,5.7,2.8,5.2c0-0.8,0-1.7-0.1-2.6c1.1,0,2.2,0,3.3,0.1c1.5,0,3,0.1,4.5,0.1
								c3,0.1,6,0.2,9,0.3c2.6,0,1.5-0.9,4.8-0.5l-0.9,0.3c5.3-0.4,10.9,0,16.1-0.3c-0.3,0.1-0.3,0.2-0.8,0.2c1.1,0.2,4.1,0,4.1-0.2
								c0.8,0,0.2,0.2,0.7,0.3c1.1,0.1,2.8-0.3,3.4-0.1c0.1,0-0.3,0.1-0.5,0.1c0.7-0.1,3.3,0,2.7-0.2c2,0.1,3.7-0.1,5.3,0
								c1-0.3,3.3,0.1,3.7-0.3c-0.1,0.5,3.4,0.4,4.7,0.2c-0.4,0.1,1.1,0.1,0.6,0.3c1.4,0,2.7-0.1,2.5-0.3c2.6,0.5,5.2-0.4,6.7,0.3
								c4.2-0.2,8.1-0.4,11.8-0.5c-0.1,0.5-4.2,0-4,0.5c3.6-0.2,5.6-0.6,9.2-0.5c0.9,0.1-0.5,0.2-0.8,0.3c3.6-0.2,6.9,0,10.1-0.2
								c0,0-0.4,0.1-0.7,0.1c0.6,0,1.5,0.1,1.4-0.1l-0.6,0.1c-1-0.3,2.5-0.6,2.6-0.8c-1.1,0.6,3.1,0.1,1.4,0.9
								c0.4,0,0.9-0.1,0.8-0.3c0.6,0,0.8,0.1,0.2,0.3c2.2-0.1,1.4-0.3,3.5-0.3c0,0.1-0.4,0.1-0.6,0.3c1-0.2,2.1-0.4,3.8-0.3
								c-0.1,0.1,0.1,0.1-0.4,0.1c2.9,0,5-0.5,8.3-0.3c-1,0.4,1.1,0.1,1.3,0.5l1.7-0.1l-0.7-0.2c1.5,0,2.9-0.3,4.2-0.1l-1.1,0.2
								l2.9-0.1l-1.6-0.1c1.5-0.2-0.2-0.5,1.9-0.4c-0.4,0,1.5,0,2.3,0.2l0,0c0.8-0.1,1.5-0.2,2.7-0.2c0.3,0.1-0.2,0.4,0,0.5
								c0.7-0.3,3.6-0.1,4.5-0.4c-0.3,0.1-0.3,0.3-0.2,0.3l0.6-0.3c0.7,0.1,0.8,0.1,0.7,0.3c2.1,0-0.7-0.5,1.8-0.3
								c-0.2,0-0.1,0.1-0.5,0.1c2.5,0.1,4.9-0.2,7.2,0c0.7,0.4-2,0.1-1.2,0.4c3.4-0.1,6.9-0.5,10.2-0.4l-0.6,0
								c0.4-0.5,2.4,0.3,4.1,0c-0.4,0-0.5,0.3-0.4,0.2c2.2,0.1,4.5-0.1,7.9-0.3l-0.4,0.1c1.3,0.1,3.4,0.1,4.9,0.1
								c0.4-0.1,1.2-0.1,0.7-0.3c4.4,0.8,8.3-0.4,12.2,0.2c-0.5,0-1.1,0.1-0.7,0.1c0,0,0.8,0,1.6-0.1c0.5,0,1-0.1,1-0.1
								c0-0.2-0.1-0.1-0.6-0.3c0.2-0.1,0.6-0.1,1.1-0.2c0,0.3,0,0.6,0,0.9c-0.1-0.7-0.2-0.6-0.3-0.3c-0.1,0.3-0.2,0.7-0.2,0.9
								c0.1-0.1,0.1,0.1,0.2,0.1c-0.4,1.7,0.5,0.3,0.2,2.6l-0.1-0.1c0.1,0.9,0.2,1.7,0.2,2.6c-0.3,0.4-0.1-0.9-0.3-1
								c0,1.3,0.5,2.6,0.2,3.8c-0.1-0.6-0.1-1.4-0.1-1.9c-0.3,1.3-0.2,1.5-0.3,2.4l0-0.1l-0.1,2.3l0.1-0.6c0.7,1.7,0.1,3.4,0.6,5.6
								c-0.4-2.2-0.2-0.4-0.6-0.5c-0.1,0.6-0.2,1.4-0.3,1.2c0.2,1.1-0.2,1.8,0.2,3.3c-0.1,0.1,0,1.1-0.3,0.9
								c0.1,1.4,0.2-0.3,0.3-0.2c0.3,2.1-0.4,5,0.1,8.1c0.2,2.6,0.5,3.1,0.7,5.6c-0.2,0.8-0.4-0.7-0.4-0.7c-0.1,1.3-0.1,2.3,0,3.6
								c-0.1-0.3-0.2,0-0.3,0.4c0,1,0.4,0.7,0.2,2c-0.1-0.2-0.3-0.5-0.4-1c0.1,1.2,0.3,2.4,0.4,3.6c-0.2,0.3-0.3-0.7-0.4-1.2
								c0.1,1.4,0.2,3.6,0.4,4l0.1-0.9c0,0.5-0.2,0.3-0.3-0.1c-0.2-1.2,0.1-1.7,0.2-1.8l0.1,0.9c0.6-0.9-0.1-3.5-0.1-5.3l0.4,0.7
								l-0.3-1.8c0.1-0.4,0.3-0.6,0.4,0.2c0.2-1.3-0.1-1.1,0.1-2.2c0-0.1,0.1-0.1,0.1,0l-0.1-1.2c0.1,0.2,0.3-0.2,0.2,0.6
								c0.2-2.2-0.3-3.6,0-4.4l0,0.2c-0.1-3.1-0.3-0.3-0.7-2.6l0.8-1.6l-0.3-0.3c0-0.3,0-0.9,0.2-0.8c-0.2-1.2-0.1,0.2-0.3-0.5
								c0.3-1.5-0.1-4.2,0.4-4.6c-0.2-0.5-0.2,1.5-0.3-0.2c0.5-0.5-0.1-1.9,0.2-3.3c0.3,0.4,0.1,1.8,0.4,0.4c-0.5-0.8,0.1-2.7,0-3.9
								c-0.4-0.1-0.2-2.6-0.3-4.5c0.1,0.1,0.2-3.7,0.3-5.6l0.1,0.1c-0.2-0.2-0.3-0.7-0.3-1.4c0-0.8-0.1-1.7-0.1-2.5
								c0.2-0.1,0.3,0.1,0.4,1.2l0-1.9c0,0,0-0.1,0-0.1c-0.5,0.1-1.1,0.2-2.1,0.2c0,0,0.5-0.3,0.5-0.3l-0.9,0c-0.2,0-0.4,0-0.7,0
								c-0.4,0-0.9,0.1-1.4,0.1c-0.9,0.1-1.9,0.1-3,0c-0.1,0.3,1.8,0.7-0.6,0.9c-0.1-0.1-0.2-0.4,0.4-0.4c-0.2,0-0.7,0.1-1.1,0.1
								l0.9-0.2c-1-0.1-0.5,0.2-1.3,0.2c0-0.2-0.6-0.1-0.5-0.3c0.2,0,0.7,0.1,1,0c-0.9,0-2-0.2-2.4-0.3c0.1,0.1,0,0.3-0.7,0.3
								c-1.7,0-0.6-0.2-1.6-0.3c-0.4,0.1-1.5,0-1.5,0.3c-0.5,0-0.6-0.1-0.8-0.2c-0.9,0.1-4.2,0-3.2,0.4l0.2,0c0,0-0.1,0-0.1,0
								c0,0,0,0,0,0h0c-2.9,0.3-6.1-0.2-9,0l0-0.1c-1.7,0.1-3.9,0.1-5.1,0.3c-0.5,0-1.2-0.2-1-0.3c-1.3,0.1-1.5,0.2-3.4,0
								c1.3-0.2-0.5-0.2,1.4-0.1c-1.7-0.1-2.1-0.2-4,0c0.6-0.3-1.3-0.3-2.1-0.2l1.2,0.2c-0.9,0-1.7,0-2.5,0l0.4-0.3
								c-3.5-0.4-6.4,0.7-9,0c-0.9,0.2,1.9,0.2,1.1,0.4c-1.6,0-3.3-0.5-3.8-0.5c-2.2-0.2-2.1,0.5-4.4,0.4c0.3,0.1,0.6,0.4-1.2,0.5
								c-1.6,0-2-0.5-1-0.6c0.4,0,0.6,0,0.6,0.1c0.5,0,1.2-0.1,0.6-0.2l-0.2,0.1c-0.8-0.1-3-0.1-2.5-0.3c-1.2,0.1-0.5,0.2,0.4,0.3
								c-2.1-0.2-3.3,0-5.4-0.1c0.3,0.1,0.7,0.2,0.3,0.2c-3.1-0.1-1.4,0.2-3.5,0.3c-1.2-0.2,0.4-0.4-1.7-0.3
								c-1.3-0.1-0.3-0.3,0.2-0.4c-2,0.2-3.7-0.2-4.8-0.2l1-0.1c-0.6,0.1-1.1,0.1-1.6,0.1l0.6,0.2c-0.6,0-1.1,0-1.1-0.1
								c-0.6,0.2,0.5,0.4-0.8,0.6c-0.8-0.1-2.5,0.1-2.7-0.2c2.5,0.1-0.3-0.3,1.9-0.4c-0.4,0-0.9,0-1.5,0c-0.1,0,0.1-0.1,0.3-0.1
								c-2.4-0.3-1.1,0.4-3.6,0.3c0.3-0.2-0.6-0.3-1-0.3c1,0,0.5,0.3-0.4,0.4c-1.6-0.1-1.8,0.1-2.6,0.1l1,0.1
								c-0.3,0.2-1.1,0.2-2.3,0.2c-0.1-0.1,1-0.1,0.6-0.2c-1.2,0.3-2.8-0.3-4.6-0.1c-0.8-0.1-0.1-0.3-0.8-0.4
								c-1.9,0.2-2.1-0.2-4.2-0.1c0.6,0.2,0.7,0.2-0.7,0.4l3.4-0.2l-2.2,0.3c1,0,2.1-0.1,2.8-0.1c-1,0.2-0.9,0.1-0.4,0.3
								c-1.4-0.4-2.8,0.2-4.4,0l0-0.6c-2.4-0.3-4.3,0.3-7.4,0.2l1,0.1c-0.4,0.2-1.9,0-3,0.1c0.1-0.2-0.5-0.3-1-0.4
								c0.1,0.1-2.3,0-2.6,0.4l-1.4-0.3c-2.5-0.1-2.9,0.6-5.3,0.5c0.7-0.2-0.4-0.4,1.3-0.5c-0.8,0-1.5,0-1.6,0.1
								c-0.5-0.1-2.3,0.3-3,0.1C62.5,0.8,62.4,1,61.4,1c-0.1,0,0-0.1,0-0.1C61.4,1,60,1,60.8,1.2c-2.5-0.6-7,0-9.2-0.5
								c-1.8,0.1-3.9,0.1-5.5,0.1c0.1-0.1,0-0.1,0.3-0.1c-2.2-0.2-1.4,0.6-3.9,0.4c-1.3-0.3,1.3-0.2,0.5-0.3C42.7,0.2,40,1,38.3,0.6
								l0.4,0c-1.3-0.2-3.2,0.2-5.3,0.2c0,0,0.1-0.1,0-0.1C32,1,29.2,1.1,27.2,1.2c0.6-0.3,0.9-0.1,0.5-0.4c-0.9,0,0.3,0.4-1.6,0.5
								c-0.6-0.1-1.9-0.3-2.1-0.5l1.7,0c-0.9-0.4-2.2,0-3.1,0l0.1-0.2c-2.6,0.1-2.7,0.4-5.5,0.4l0.3,0.1c-1.6,0.4-1.3-0.2-2.9,0.1
								l-0.5-0.4c-1,0.1-3.6,0.4-5.4,0.5c1-0.3,3.2-0.4,4.5-0.6c-1,0-3.5,0-4,0.2c0.4,0,0.9-0.1,1.3-0.1C9.4,1,7.8,1.2,5.8,1.2
								c0.1-0.3-0.4-0.4-1.2-0.4c-0.4,0-0.8,0-1.4,0c-0.8,0-1.5,0-2.3,0c0,0.8,0,1.6-0.1,2.3c0,0.6-0.1,0.9-0.2,1.1
								c0.3,3.6-0.1,7.1-0.1,11.3c0.6-1.5,0,1.2,0.6,1c0,1,0,1.3,0,1.4l-0.4,2.9c-0.2,0.7-0.1-0.9-0.3-0.8c0,2.1-0.3,0.9-0.4,2.3
								c0.2-0.3,0.3,0.7,0.2,2l0.3-1.7C0.8,25.4,0,25,0.3,28L0.1,27c0.1,1.5,0,5.7,0.5,7.2c-0.1,0.3-0.2,0.6-0.3,0
								c-0.1,3.7,0.5,8.2,0.2,11l-0.1-0.3c0,0.7,0.3,1.2,0.1,2.1c-0.1,0-0.1-0.3-0.2,0c0.1,0.4,0.3,1.8,0.2,2.7L0.4,49
								c-0.1,1.2,0,2.2,0,3.2c0.1,1.3,0.2,2.4,0.3,3.6c0.7,0,1.3-0.1,2-0.1c0.5,0,1-0.1,1.6-0.1c0,0.4,2.8,0.6,4.2,0.7l0,0.1
								c4.2,0.1,7.1-0.4,11-0.5c2.4,0.5,8.1,0.2,12,0.5c-0.6-0.1,0.1-0.3,0.8-0.4c0.9,0.1,2.5-0.3,2.4,0.1l-0.3,0
								c0.7,0.4,2.5,0.3,4,0.3l0.2-0.5c3.8,0.8,10-0.3,12,0.4c0.9-0.1,2.1-0.1,3-0.3l0,0.3c2.5,0.1,3.8,0.1,6.9,0l-0.6,0.2
								c1.8,0,2.2-0.8,3.9-0.8l0.5,0.4c3.1,0,6.2,0.4,9.3,0c-0.1,0.1-0.1,0.2-0.6,0.2c1.5,0,5.6,0.3,5.1-0.3c0,0.4,3.2,0,4.9-0.1
								L82.4,56c1.4-0.4,1.5-0.5,3.4-0.6c0.5,0,0.4,0.2-0.2,0.2c1.6,0.1,1.2-0.3,3.1-0.1L88,55.6c1.6,0,1.5-0.1,2.4-0.3
								c1-0.1,3,0.1,3.3,0.3c0.2-0.2,1.1-0.4,2-0.3c0.1,0.1-0.2,0.2-0.4,0.2c2.7,0.2,4-0.3,5.8-0.1c0,0.1,0.2,0.1,0.3,0.2
								c-2.1,0-3.8,0-3.7,0c0,0.3,1.7,0.3,0.4,0.7c1.4-0.2,3.7-0.6,5.4-0.5c0.1,0,0.2,0,0.2,0.1l-0.2,0c0.4,0,0.7,0,1.1,0
								c0.5,0,0.9,0.1,1.4,0.1c0.2,0.2,2,0.1,2.8,0.1c-0.1-0.3,1-0.2,0-0.5c0.1,0-0.2,0-0.7,0c-0.1,0-0.3,0-0.4,0c0,0,0,0,0.1,0
								c-0.6,0-1.3,0-2.1,0c0.7-0.1,1.4-0.3,2.3-0.1c0.4-0.2,0.9-0.4,1.2-0.5c1.2,0.4,3.4,0.6,3.7,0.8c2.6-0.2,6.1-0.1,7.8-0.6
								c0.7-0.1,0.9,0.2,1.1,0.2c-0.4,0.1-0.9,0-1.2,0.1c1.5-0.1,4.4-0.1,4.8-0.4c1.9,0.2-1.1,0.3,1.5,0.3l-0.3,0.1
								c5.1,0.6,8.2-0.9,13.8-0.2c-0.4,0-0.6-0.1-0.7-0.1c6.4,0.3,13.2-0.3,19.5,0.2c1.8,0.1,2-0.1,3.1-0.3l0.4,0.3l1.9-0.3
								c2.7-0.3,4.6,0.7,8,0.3l-0.4-0.2c1.2,0,3.8-0.1,3.6,0.1c0.1,0,0.4-0.2,0.9-0.1l0,0.2l3-0.3c2.3,0.1-0.4,0.6,3,0.7
								c1.2-0.1,3.5-0.5,3.1-0.6c-0.5,0-1.3-0.1-1.3-0.3l1.1-0.1c0.2-0.5,1.1-0.9-1.7-1.3l-1.9,0.3l-0.6-0.2l1.6,0
								c-0.9-0.2-1.5,0-2.2,0.1c-0.2-0.1-0.4-0.2-0.8-0.2l-1.9,0.4c-0.2-0.2,0.9-0.4-0.4-0.5c-0.9,0.2,0.9,0.4-0.6,0.5
								c-0.9-0.2-0.7-0.4-1.8-0.2c-0.2-0.1,0.1-0.2,0.5-0.2c-1,0.1-2.6,0.1-3.1,0.3c-1-0.3-3.3,0.1-3.2-0.4
								c-0.3,0.1-1.7,0.3-2.6,0.4c1.6-0.5-3.3,0-2.9-0.6c-1.2,0.5-4.4,0.2-6.5,0.5c0.1,0,0.4-0.1,0.5-0.1c-1.2,0-1.6-0.2-2.3-0.3
								c-0.2,0.4-2,0.5-3,0.7c-1.5-0.4,0.9-0.5,0.4-0.8c0.1,0.3-2.6,0.3-2.1,0.6c-1.1-0.2-1-0.1-1.6-0.4c-0.2,0.5-1.1,0.1-2,0.4
								c-1.6-0.2-0.4-0.5-2.2-0.3C144.1,53.4,145.7,53.2,145.7,53.2z M103,54.1L103,54.1c0.4,0,0.7,0,0.9,0
								C103.7,54.1,103.4,54.1,103,54.1z M99.4,54.1c0.4,0,1,0,1.6,0c0.1,0.1,0,0.2-0.4,0.2C100.8,54.2,99.9,54.2,99.4,54.1z
								 M107,56c-0.6,0-0.8,0-0.8-0.1c0.3,0,0.6,0,1,0c0,0,0,0,0.1,0C107.2,55.9,107.1,56,107,56z"/>
							<path class="st0" d="M108,55.7c0.1,0,0.1,0,0.2,0c-0.1,0-0.2,0-0.3-0.1c-0.1,0-0.1,0.1-0.2,0.1
								C107.8,55.7,107.9,55.7,108,55.7z"/>
							<path class="st0" d="M167.5,1.1L167.5,1.1C167.5,1.1,167.6,1.1,167.5,1.1C167.5,1.1,167.5,1.1,167.5,1.1z"/>
							<polygon class="st0" points="49.8,53.5 49.8,53.6 50.1,53.5 							"/>
							<path class="st0" d="M185.1,3.2c0,0-0.1,0.1-0.1,0.3C185,3.4,185,3.3,185.1,3.2z"/>
							<path class="st0" d="M185,11.7l-0.1,1.2C185,12.4,185,12,185,11.7z"/>
							<path class="st0" d="M184.9,18.3c0,0.1,0.1,0.1,0.1,0.1c0,0,0,0,0,0L184.9,18.3z"/>
							<path class="st0" d="M97.9,2.6c-0.1,0-0.2,0-0.3,0C97.1,2.6,97.5,2.6,97.9,2.6z"/>
							<path class="st0" d="M129,1.9C128.7,2,128.4,2,128,2C128.6,2.1,129,2.1,129,1.9z"/>
							<path class="st0" d="M63.2,2.9L63.2,2.9c-0.1,0-0.1,0-0.2,0L63.2,2.9z"/>
							<path class="st0" d="M126.6,2c0.6,0.1,1,0,1.4,0C127.6,2,127,2,126.6,2z"/>
							<path class="st0" d="M184.7,46.8l0,0.3c0,0,0,0,0,0L184.7,46.8z"/>
							<path class="st0" d="M184.8,47.1l0,0.4C184.8,47.3,184.8,47.2,184.8,47.1z"/>
							<path class="st0" d="M184.9,48.2l-0.1-0.7C184.8,47.7,184.8,48,184.9,48.2z"/>
							<path class="st0" d="M184.9,38.1l-0.1-0.1C184.8,38,184.8,38.1,184.9,38.1z"/>
							<path class="st0" d="M184.8,35.4c0,0.6-0.2,1.6-0.2,2.5l0.1,0.1C184.6,37.6,185,36,184.8,35.4z"/>
							<path class="st0" d="M186.1,24.4l-0.1,2.2c0.1-0.4,0.3-0.9,0.3,0.1C186.6,23.9,186.1,27.3,186.1,24.4z"/>
							<path class="st0" d="M186.3,17.5c0.1,1.2,0.2,0,0.2,0C186.4,16.8,186.4,16.6,186.3,17.5z"/>
							<path class="st0" d="M152,0.8l0.1-0.3C151.2,0.6,152.1,0.7,152,0.8z"/>
							<polygon class="st0" points="142.5,2.2 143.4,2.3 143.8,2.1 							"/>
							<polygon class="st0" points="136.9,0.3 137.3,0.3 135.8,0.4 							"/>
							<path class="st0" d="M53.6,0.4l0.3,0.3C54.5,0.7,54.6,0.3,53.6,0.4z"/>
							<path class="st0" d="M17.6,0.8c-0.4-0.2-1.4-0.3-2-0.1C16.4,0.7,17.2,0.8,17.6,0.8z"/>
							<polygon class="st0" points="40.3,56.1 39.5,56.2 40.9,56.1 							"/>
						</g>
					</g>
				</g>
			</g>
		</g>
	</g>
	<g>
		<path class="st1" d="M16.2,31.9h0.6h0.9c0.4,0,0.7,0.1,0.9,0.2c0.2,0.1,0.2,0.3,0.1,0.6c-0.1,0.3-0.2,0.6-0.4,0.7
			c-0.2,0.1-0.6,0.2-1.2,0.2h-3h-0.6c-0.3,0-0.5-0.1-0.6-0.2c-0.1-0.1-0.1-0.4-0.1-0.7c0.1-0.3,0.2-0.5,0.4-0.7
			c0.2-0.1,0.5-0.2,1-0.2h0.2L16.8,21h-0.3c-0.7,0-1.1-0.1-1.3-0.2c-0.2-0.1-0.3-0.4-0.2-0.7c0.1-0.3,0.2-0.5,0.4-0.6s0.6-0.2,1-0.2
			c0.3,0,0.6,0,0.7,0h1.1c0.4,0,0.6,0,0.8,0.1c0.1,0.1,0.3,0.3,0.4,0.6l3.9,10.5l2-9.6h-0.5H24c-0.4,0-0.7-0.1-0.9-0.2
			c-0.2-0.1-0.2-0.4-0.2-0.7c0.1-0.3,0.2-0.6,0.4-0.7c0.2-0.1,0.6-0.2,1.1-0.2h2.9H28c0.3,0,0.5,0.1,0.6,0.2s0.1,0.4,0.1,0.7
			c-0.1,0.3-0.2,0.5-0.4,0.7c-0.2,0.1-0.5,0.2-1,0.2h-0.1l-2.6,12.2c0,0.2-0.1,0.4-0.3,0.5c-0.1,0.1-0.4,0.1-0.8,0.1
			c-0.4,0-0.6,0-0.7-0.1s-0.2-0.3-0.3-0.6L18.3,22L16.2,31.9z"/>
		<path class="st1" d="M37.1,32.1c-0.8,0.6-1.6,1.1-2.4,1.4c-0.8,0.3-1.7,0.5-2.5,0.5c-1.2,0-2.1-0.3-2.7-1
			c-0.6-0.7-0.8-1.5-0.5-2.6c0.3-1.3,1-2.3,2.1-3c1.1-0.7,2.6-1.1,4.4-1.1c0.5,0,0.9,0,1.4,0.1c0.5,0.1,0.9,0.2,1.4,0.3l0-0.1
			c0.2-0.9,0.1-1.6-0.2-2.1c-0.4-0.4-1-0.7-1.9-0.7c-0.6,0-1.4,0.2-2.2,0.5s-1.4,0.5-1.6,0.5c-0.2,0-0.4-0.1-0.5-0.3
			c-0.1-0.2-0.1-0.4-0.1-0.7c0.1-0.5,0.6-0.9,1.6-1.2s2.1-0.5,3.5-0.5c1.4,0,2.4,0.4,3,1.1s0.7,1.8,0.4,3.2L39,31.9h0.6
			c0.6,0,0.9,0.1,1.1,0.2c0.2,0.1,0.2,0.3,0.2,0.7c-0.1,0.3-0.2,0.5-0.4,0.7c-0.2,0.1-0.4,0.2-0.8,0.2h-1.9c-0.2,0-0.4-0.1-0.5-0.2
			c-0.1-0.1-0.2-0.3-0.2-0.6L37.1,32.1z M37.9,28.3C37.4,28.1,37,28,36.6,28c-0.4-0.1-0.8-0.1-1.2-0.1c-1.2,0-2.3,0.2-3.1,0.6
			c-0.8,0.4-1.3,1-1.4,1.7c-0.1,0.5,0,1,0.4,1.4s0.9,0.5,1.6,0.5c1,0,2-0.3,3-0.8c1-0.5,1.5-1.1,1.7-1.7L37.9,28.3z"/>
		<path class="st1" d="M54.5,23.1c0.4,0,0.7,0.1,0.8,0.2c0.2,0.1,0.2,0.4,0.1,0.7c-0.1,0.3-0.2,0.5-0.4,0.6
			c-0.2,0.1-0.5,0.2-0.8,0.2h-4.9l-0.9,4c-0.3,1.3-0.3,2.2,0,2.6s0.8,0.6,1.6,0.6c0.7,0,1.7-0.2,2.8-0.6s1.8-0.6,2-0.6
			c0.2,0,0.4,0.1,0.5,0.2c0.1,0.2,0.2,0.4,0.1,0.6c-0.1,0.3-0.2,0.5-0.4,0.7c-0.2,0.2-0.6,0.4-1.1,0.6c-0.9,0.3-1.6,0.5-2.3,0.7
			c-0.7,0.1-1.3,0.2-1.8,0.2c-0.9,0-1.7-0.2-2.3-0.5c-0.6-0.3-1-0.8-1.2-1.4c-0.1-0.3-0.1-0.6-0.1-1c0-0.4,0.1-1,0.3-1.8l0.1-0.4
			l0.9-4h-2.1c-0.3,0-0.6-0.1-0.7-0.2s-0.2-0.3-0.1-0.6c0.1-0.3,0.2-0.6,0.5-0.7c0.2-0.1,0.7-0.2,1.4-0.2h1.4l0.5-2.5l0.1-0.6
			c0.1-0.3,0.2-0.6,0.4-0.8c0.2-0.2,0.4-0.2,0.8-0.2c0.4,0,0.6,0.1,0.7,0.3c0.1,0.2,0.1,0.7-0.1,1.4l-0.5,2.5H54.5z"/>
		<path class="st1" d="M67.9,31.9c0.3,0,0.6,0.1,0.7,0.2c0.1,0.1,0.2,0.4,0.1,0.6c-0.1,0.3-0.2,0.5-0.4,0.7
			c-0.2,0.1-0.4,0.2-0.8,0.2h-7.9c-0.3,0-0.6-0.1-0.7-0.2c-0.1-0.1-0.2-0.4-0.1-0.7c0.1-0.3,0.2-0.5,0.4-0.6
			c0.2-0.1,0.5-0.2,0.8-0.2h2.1l1.6-7.4h-2c-0.3,0-0.6-0.1-0.7-0.2s-0.2-0.4-0.1-0.7c0.1-0.3,0.2-0.5,0.4-0.7s0.5-0.2,0.8-0.2h1.9
			l0.2-0.8c0.3-1.5,1-2.5,1.9-3.2s2.4-1,4.2-1c0.9,0,1.6,0.1,1.9,0.3c0.4,0.2,0.5,0.5,0.4,0.9c0,0.3-0.2,0.5-0.4,0.6
			c-0.2,0.2-0.5,0.2-0.8,0.2c-0.1,0-0.5,0-1-0.1c-0.5-0.1-1-0.1-1.4-0.1c-0.9,0-1.6,0.2-2.1,0.6s-0.8,1-1,1.9l-0.1,0.7h4.3
			c0.3,0,0.6,0.1,0.7,0.2c0.1,0.1,0.2,0.4,0.1,0.7c-0.1,0.3-0.2,0.5-0.4,0.6c-0.2,0.2-0.5,0.2-0.8,0.2h-4.2L64,31.9H67.9z"/>
		<path class="st1" d="M86.3,28c-0.4,1.7-1.3,3.1-2.7,4.2c-1.4,1.1-3.1,1.6-4.9,1.6c-1.9,0-3.3-0.5-4.2-1.6
			c-0.9-1.1-1.2-2.5-0.9-4.2c0.4-1.7,1.3-3.1,2.7-4.2s3.1-1.6,4.9-1.6s3.3,0.5,4.2,1.6C86.4,24.9,86.7,26.3,86.3,28z M79,32.2
			c1.2,0,2.3-0.4,3.3-1.2c1-0.8,1.6-1.8,1.8-3c0.3-1.2,0.1-2.2-0.6-3c-0.6-0.8-1.6-1.2-2.8-1.2s-2.3,0.4-3.3,1.2
			c-1,0.8-1.6,1.8-1.8,3c-0.3,1.2-0.1,2.2,0.6,3S77.8,32.2,79,32.2z"/>
		<path class="st1" d="M92.8,31.9h4c0.3,0,0.5,0.1,0.7,0.2s0.2,0.3,0.1,0.6c-0.1,0.3-0.2,0.6-0.4,0.7c-0.2,0.1-0.4,0.2-0.8,0.2h-7.9
			c-0.3,0-0.5-0.1-0.7-0.2c-0.1-0.1-0.2-0.4-0.1-0.7c0.1-0.3,0.2-0.5,0.4-0.6c0.2-0.1,0.5-0.2,0.8-0.2H91l1.7-7.8h-0.8
			c-0.8,0-1.3-0.1-1.4-0.2c-0.2-0.1-0.2-0.4-0.1-0.7c0.1-0.3,0.2-0.5,0.4-0.6s0.4-0.2,0.8-0.2h2.8c0.2,0,0.4,0,0.5,0.1
			c0.1,0.1,0.1,0.2,0.1,0.4L94.3,25c1-1,1.9-1.7,2.9-2.1c0.9-0.5,1.9-0.7,2.8-0.7c0.7,0,1.3,0.1,1.7,0.4c0.4,0.3,0.5,0.7,0.4,1.1
			c-0.1,0.3-0.2,0.6-0.5,0.8c-0.3,0.2-0.5,0.3-0.8,0.3c-0.2,0-0.5-0.1-0.9-0.4s-0.8-0.4-1.1-0.4c-0.6,0-1.3,0.2-2.1,0.7
			c-0.8,0.4-1.7,1.2-2.8,2.1L92.8,31.9z"/>
		<path class="st1" d="M106.6,31.6c0.1-0.6,0.5-1.1,1-1.6c0.5-0.4,1.1-0.6,1.8-0.6c0.7,0,1.3,0.2,1.6,0.6c0.4,0.4,0.5,0.9,0.3,1.6
			c-0.1,0.6-0.5,1.2-1,1.6c-0.5,0.4-1.1,0.6-1.8,0.6c-0.7,0-1.2-0.2-1.6-0.6C106.6,32.8,106.4,32.3,106.6,31.6z"/>
		<path class="st1" d="M127.1,33.6c-0.2,0-0.3,0-0.3-0.1c-0.1-0.1-0.1-0.2,0-0.5l0.2-1c-0.6,0.6-1.3,1.1-2.1,1.4
			c-0.8,0.3-1.6,0.5-2.5,0.5c-1.5,0-2.7-0.5-3.5-1.6c-0.8-1.1-1-2.4-0.7-4.1c0.4-1.7,1.2-3.1,2.5-4.2c1.3-1.1,2.8-1.7,4.5-1.7
			c0.8,0,1.5,0.1,2.2,0.4c0.6,0.3,1.1,0.7,1.4,1.3l1-4.6h-0.6c-0.7,0-1.1-0.1-1.3-0.2c-0.2-0.1-0.2-0.4-0.2-0.7
			c0.1-0.3,0.2-0.5,0.4-0.7c0.2-0.1,0.5-0.2,0.8-0.2h2.5c0.2,0,0.4,0,0.5,0.1s0.1,0.2,0.1,0.4L129,31.9h0.5c0.4,0,0.7,0.1,0.8,0.2
			s0.2,0.3,0.1,0.6c-0.1,0.3-0.2,0.5-0.4,0.6c-0.2,0.2-0.4,0.2-0.7,0.2H127.1z M120.3,28.2c-0.2,1.1-0.1,2,0.5,2.7s1.4,1.1,2.5,1.1
			c1.1,0,2.1-0.4,3-1.1c0.9-0.7,1.4-1.7,1.7-2.8c0.2-1.1,0.1-2-0.5-2.8c-0.6-0.7-1.4-1.1-2.5-1.1c-1.1,0-2.1,0.4-3,1.1
			C121.1,26,120.6,27,120.3,28.2z"/>
		<path class="st1" d="M135.3,28.6c-0.2,1.2,0,2.1,0.6,2.7c0.6,0.6,1.5,1,2.8,1c0.9,0,2-0.3,3.3-0.8c1.2-0.5,2-0.8,2.2-0.8
			c0.2,0,0.4,0.1,0.6,0.2s0.2,0.3,0.1,0.6c0,0.2-0.2,0.4-0.4,0.6c-0.2,0.2-0.5,0.4-0.9,0.6c-0.9,0.4-1.8,0.7-2.7,0.9
			s-1.8,0.3-2.6,0.3c-1.8,0-3.2-0.5-4.1-1.6c-0.9-1.1-1.1-2.5-0.8-4.2c0.4-1.8,1.3-3.2,2.7-4.3s3.1-1.7,4.9-1.7c1.7,0,3,0.5,3.9,1.6
			c0.9,1,1.2,2.3,0.9,3.8c-0.1,0.5-0.3,0.8-0.5,0.9s-0.8,0.2-1.6,0.2h-0.2H135.3z M135.7,27h7.9c0.1-1-0.2-1.7-0.7-2.3
			s-1.3-0.9-2.3-0.9c-1.1,0-2,0.3-2.9,0.8C136.8,25.2,136.2,26,135.7,27z"/>
		<path class="st1" d="M149.7,24.1c-0.5,0-0.9-0.1-1.1-0.2c-0.2-0.1-0.2-0.4-0.2-0.7c0.1-0.3,0.2-0.5,0.4-0.6
			c0.2-0.1,0.5-0.2,0.8-0.2h3.4c0.5,0,0.8,0.1,0.9,0.2c0.1,0.1,0.2,0.3,0.1,0.7c-0.1,0.3-0.2,0.5-0.4,0.7c-0.2,0.1-0.6,0.2-1.2,0.2
			H152l1.5,7.8l5.2-7.8h-0.7c-0.6,0-1-0.1-1.2-0.2c-0.2-0.1-0.3-0.4-0.2-0.7c0.1-0.3,0.2-0.5,0.4-0.7c0.2-0.1,0.5-0.2,1-0.2h3.7
			c0.3,0,0.5,0.1,0.7,0.2c0.1,0.1,0.2,0.4,0.1,0.6c-0.1,0.3-0.2,0.5-0.4,0.7c-0.2,0.1-0.6,0.2-1.1,0.2h-0.2l-5.9,8.8
			c-0.3,0.4-0.6,0.7-0.8,0.9c-0.2,0.1-0.5,0.2-0.9,0.2c-0.3,0-0.6-0.1-0.8-0.2c-0.2-0.1-0.3-0.4-0.4-0.9L149.7,24.1z"/>
		<path class="st1" d="M167.3,30.7c0.1-0.3,0.3-0.4,0.4-0.5c0.1-0.1,0.3-0.1,0.5-0.1h2.5c0.1,0,0.2,0,0.2,0.1s0.1,0.1,0.1,0.2
			c0,0,0,0.1-0.1,0.1c0,0.1-0.1,0.1-0.1,0.2l-4.5,6.5c-0.1,0.1-0.2,0.2-0.3,0.3s-0.2,0.1-0.3,0.1c-0.1,0-0.1,0-0.2,0
			c0,0-0.1,0-0.1,0l-0.7-0.3c-0.1,0-0.2-0.1-0.2-0.2c0-0.1-0.1-0.2,0-0.2c0,0,0-0.1,0-0.1c0,0,0-0.1,0.1-0.2L167.3,30.7z
			 M167.5,24.9c0.1-0.6,0.5-1.1,1-1.6c0.5-0.4,1.1-0.6,1.8-0.6c0.7,0,1.3,0.2,1.6,0.6c0.4,0.4,0.5,0.9,0.3,1.6
			c-0.1,0.6-0.5,1.2-1,1.6c-0.5,0.4-1.2,0.6-1.9,0.6c-0.7,0-1.2-0.2-1.6-0.6S167.4,25.6,167.5,24.9z"/>
	</g>
</g>
</svg>
