<?xml version="1.0" encoding="utf-8"?>
<!-- Generator: Adobe Illustrator 19.1.0, SVG Export Plug-In . SVG Version: 6.00 Build 0)  -->
<svg version="1.1" xmlns="http://www.w3.org/2000/svg" xmlns:xlink="http://www.w3.org/1999/xlink" x="0px" y="0px"
	 viewBox="0 0 410 230" style="enable-background:new 0 0 410 230;" xml:space="preserve">
<style type="text/css">
	.st0{fill:#330033;}
	.st1{fill:#336699;stroke:#333366;stroke-miterlimit:10;}
	.st2{fill:#33CCCC;}
</style>
<g id="Layer_2">
	<rect class="st0" width="410" height="230"/>
</g>
<g id="Layer_1">
	<ellipse class="st1" cx="108.4" cy="130.1" rx="57.8" ry="68.3"/>
	<circle class="st1" cx="108.4" cy="54.9" r="35.9"/>
	<g>
		<path class="st2" d="M275.5,139.7c0,1.8-0.5,4.1-1.5,7c-2.3,6.8-7,12.2-14.1,16.3c-6.5,3.8-13.6,5.6-21.3,5.6
			c-13,0-22.7-5.3-29.2-16c-5.5-8.7-8.3-20-8.3-33.7c0-11.7,1.7-22.8,5.2-33.2c3.9-12.2,9.6-21.6,17.3-28.2c5.6-5,11.4-7.5,17.1-7.5
			c8.5,0,14.9,4.1,19.1,12.3c3.3,6.4,5,14.3,5,23.8c0,4.7-0.7,10-2.2,16.1c-1.9,8-4.3,12-7.3,12c-2.3,0-4-1.2-5-3.7
			c0.7-0.4,1.7-1.2,3.2-2.3c2.9-2.8,4.3-9.5,4.3-20.3c0-6.5-1.2-12.8-3.7-18.8c-3.1-7.8-7.4-11.6-12.8-11.6c-4.3,0-8.9,2.6-13.6,7.8
			c-3.5,3.9-6.6,8.4-9.1,13.5c-5.6,11.7-8.5,26.2-8.5,43.4c0,11.4,2,20.5,6,27.2c5,8.4,12.7,12.6,23.3,12.6c5.8,0,11-1.5,15.8-4.6
			c4.8-3,8.4-7.1,11-12.2c0.4-1.7,1.4-4,2.8-7c0.9-1.4,2-2.2,3.3-2.2C274.4,136,275.5,137.2,275.5,139.7z"/>
		<path class="st2" d="M352.6,57.9c0,8.5-1.4,21.3-4.3,38.2c-2,11.4-5.4,24.7-10.3,39.9c-6.6,20.8-12.6,31.2-17.9,31.2
			c-4.8,0-8.5-0.7-11.3-2.2c-5.5-3-10.7-16.8-15.6-41.4c-1.1-5.5-3.7-21.6-7.6-48.2c-0.6-3.4-1.6-7.8-3.2-13.1
			c0-0.1-0.3-0.5-0.9-1.2c-0.6-0.7-0.9-1.3-0.9-1.8c0-1.3,1-2.6,3-3.7s3.7-1.7,5.2-1.7c1.9,0,3.6,0.7,5.2,2.2
			c1.6,1.5,2.3,3.2,2.3,5.1c0,2.2-0.1,5.5-0.4,9.7c-0.3,4.3-0.4,7.5-0.4,9.7c0,5.9,1.8,17.3,5.5,34.4c5.8,27.4,10.6,41,14.5,41
			c2.5,0,5.5-3,8.8-9.1c5.3-9.4,10.2-23.4,14.6-42c4.2-17.9,6.3-32.7,6.3-44.4c0-4.2-1.1-7-3.2-8.5c2.2-3.2,4-4.8,5.3-4.8
			c1.8,0,3.2,1.4,4.2,4.2C352.2,53.8,352.6,55.9,352.6,57.9z"/>
	</g>
</g>
</svg>
